<svg width="125" height="100" viewBox="0 0 125 100" fill="none" xmlns="http://www.w3.org/2000/svg">
<path d="M124.993 49.9986C124.993 36.7382 119.725 24.0208 110.349 14.6442C100.972 5.2677 88.255 1.7389e-06 74.9946 0C61.7342 -1.73889e-06 49.0169 5.2677 39.6404 14.6442C30.2638 24.0208 24.9961 36.7382 24.9961 49.9986H40.6208C45.7984 49.9986 49.8363 45.6597 51.7327 40.8418C52.9778 37.6787 54.8671 34.7718 57.3173 32.3213C62.0056 27.6331 68.3644 24.9993 74.9946 24.9993C81.6248 24.9993 87.9836 27.6331 92.6719 32.3213C97.3602 37.0096 99.9937 43.3684 99.9937 49.9986H124.993Z" fill="url(#paint0_linear_1_18748)"/>
<path d="M96.1907 69.1352C98.7034 63.069 99.9968 56.5675 99.9968 50.0017H124.993C124.993 77.6151 102.608 100 74.9948 100C70.6704 100 66.474 99.4511 62.4722 98.4191C64.7364 97.8357 66.9619 97.0928 69.1317 96.1942C75.1979 93.6815 80.7096 89.9988 85.3525 85.356C89.9953 80.7131 93.6783 75.2013 96.1907 69.1352Z" fill="#4392F9"/>
<path d="M-6.10352e-05 49.9954C-6.19745e-05 56.5615 1.29319 63.0631 3.80584 69.1292C6.31852 75.1954 10.0014 80.7072 14.6442 85.35C19.2869 89.9925 24.7988 93.6755 30.8648 96.1882C36.9309 98.7009 43.4325 99.994 49.9985 99.994C56.5643 99.994 63.0658 98.7009 69.132 96.1882C75.1981 93.6755 80.7099 89.9925 85.3528 85.35C89.9956 80.7072 93.6783 75.1954 96.191 69.1292C98.7037 63.0631 99.9971 56.5615 99.9971 49.9954H84.3723C79.1948 49.9954 75.1569 54.3343 73.2604 59.1519C73.2066 59.2892 73.1512 59.4258 73.0948 59.5625C71.8384 62.5954 69.9971 65.3515 67.6755 67.6727C65.3542 69.994 62.5982 71.8356 59.5653 73.092C56.5323 74.3483 53.2816 74.9949 49.9985 74.9949C46.7155 74.9949 43.4647 74.3483 40.4318 73.092C37.3986 71.8356 34.6428 69.994 32.3213 67.6727C29.9999 65.3515 28.1585 62.5954 26.9022 59.5625C25.6458 56.5293 24.9992 53.2785 24.9992 49.9954H-6.10352e-05Z" fill="url(#paint1_linear_1_18748)"/>
<path d="M0.00465393 49.9986C0.00465393 22.385 22.3897 0 50.003 0C54.3264 0 58.5216 0.548716 62.523 1.58035C53.9371 3.79217 46.0167 8.26832 39.6405 14.6443C30.264 24.0207 24.9963 36.7382 24.9963 49.9986H0.00465393Z" fill="#F83758"/>
<defs>
<linearGradient id="paint0_linear_1_18748" x1="124.993" y1="24.9993" x2="24.9961" y2="24.9993" gradientUnits="userSpaceOnUse">
<stop stop-color="#CFE2FC"/>
<stop offset="1" stop-color="#4392F9"/>
</linearGradient>
<linearGradient id="paint1_linear_1_18748" x1="-5.77569e-05" y1="74.9949" x2="99.9971" y2="74.9949" gradientUnits="userSpaceOnUse">
<stop stop-color="#F8BCC6"/>
<stop offset="1" stop-color="#F83758"/>
</linearGradient>
</defs>
</svg>
